<svg id="Layer_1" enable-background="new 0 0 512 512" height="512" viewBox="0 0 512 512" width="512" xmlns="http://www.w3.org/2000/svg"><g><path d="m413.428 161.687c-4.493-5.056-12.287-5.352-17.071-.57l-22.32 22.311 1.281 20.693-107.653 104.492h-24.725v-165.859l13.039-8.216.006-31.555c.002-6.749-5.695-12.071-12.432-11.678-110.479 6.441-198.084 98.075-198.082 210.171.002 116.613 93.916 210.524 210.53 210.524 116.271-.001 210.528-94.257 210.528-210.529 0-53.646-20.066-102.606-53.101-139.784z" fill="#ffe07d"/><g><path d="m91.884 301.476c-.002-99.624 69.196-183.081 162.149-204.941-2.23-3.352-6.132-5.484-10.479-5.23-110.48 6.441-198.085 98.075-198.083 210.171.002 116.613 93.916 210.524 210.53 210.524 7.827 0 15.55-.441 23.156-1.273-105.593-11.51-187.271-100.502-187.273-209.251z" fill="#ffd064"/></g><path d="m437.8 57.85c-36.555-34.747-85.579-56.498-139.669-57.848-2.934-.073-5.355 2.291-5.356 5.226l-.01 38.314 5.804 7.698 94.433 40.044 17.811 1.136 27.087-27.075c2.081-2.08 2.032-5.468-.1-7.495z" fill="#ffe07d"/><path d="m329.2 3.085c-10.127-1.766-20.499-2.82-31.069-3.084-2.934-.073-5.355 2.291-5.356 5.226l-.01 38.314 5.804 7.698 30.617 12.983z" fill="#ffd064"/><path d="m374.037 183.428-118.091 118.043.034-166.934c-92.186.011-166.914 74.745-166.914 166.934 0 92.195 74.739 166.934 166.934 166.934s166.934-74.739 166.934-166.934c0-46.099-18.686-87.833-48.897-118.043z" fill="#fbc56c"/><g><path d="m135.478 301.471c0-76.081 50.899-140.267 120.5-160.383l.001-6.551c-92.186.011-166.914 74.745-166.914 166.934 0 92.195 74.739 166.934 166.934 166.934 7.876 0 15.621-.558 23.206-1.613-81.208-11.296-143.727-81.001-143.727-165.321z" fill="#ebb865"/></g><path d="m466.529 301.471c0-2.588-.061-5.161-.154-7.726h-197.702c-6.065 0-11.882-2.409-16.17-6.698l-139.799-139.799c-3.774 3.508-7.416 7.155-10.924 10.929l135.568 135.568h-191.722c-.093 2.567-.155 5.141-.155 7.73 0 2.587.063 5.159.154 7.723h191.721l-135.693 135.694c3.507 3.775 7.152 7.419 10.927 10.927l135.694-135.695v191.721c2.565.092 5.139.154 7.727.154s5.16-.063 7.726-.156v-191.72l135.566 135.566c3.774-3.508 7.418-7.153 10.927-10.927l-135.567-135.564h191.719c.093-2.566.157-5.138.157-7.727z" fill="#ebb865"/><path d="m292.757 43.529-.032 154.328c-.001 4.652 5.623 6.983 8.913 3.694l109.176-109.131c-30.213-30.211-71.953-48.896-118.057-48.891z" fill="#fbc56c"/><path d="m329.168 159.152.023-111.628c-11.729-2.61-23.918-3.996-36.434-3.995l-.001.001-.031 154.327c-.001 4.652 5.623 6.983 8.913 3.694l33.742-33.728c-3.452-1.192-6.213-4.353-6.212-8.671z" fill="#ebb865"/><g><path d="m220.082 239.54c-3.585-2.313-4.617-7.096-2.303-10.681l5.151-7.983c2.313-3.585 7.095-4.616 10.681-2.303 3.585 2.313 4.617 7.096 2.303 10.681l-5.151 7.983c-2.311 3.582-7.091 4.62-10.681 2.303z" fill="#ad6a50"/></g><g><path d="m178.867 279.32-2.003-9.287c-.899-4.172 1.753-8.282 5.924-9.182 4.173-.897 8.283 1.754 9.182 5.924l2.003 9.287c.899 4.172-1.753 8.282-5.924 9.182-4.176.9-8.283-1.756-9.182-5.924z" fill="#ad6a50"/></g><g><path d="m185.798 335.942-7.983-5.151c-3.585-2.313-4.617-7.096-2.303-10.681 2.313-3.585 7.096-4.617 10.681-2.303l7.983 5.151c3.585 2.313 4.617 7.096 2.303 10.681-2.311 3.582-7.091 4.619-10.681 2.303z" fill="#ad6a50"/></g><g><path d="m213.829 370.883c-.899-4.172 1.753-8.282 5.924-9.182l9.287-2.003c4.176-.898 8.282 1.754 9.182 5.924.899 4.172-1.753 8.282-5.924 9.182l-9.287 2.003c-4.176.899-8.283-1.756-9.182-5.924z" fill="#ad6a50"/></g><g><path d="m276.229 380.219c-3.586-2.313-4.617-7.096-2.303-10.681l5.151-7.983c2.313-3.586 7.096-4.616 10.681-2.303 3.586 2.313 4.617 7.096 2.303 10.681l-5.151 7.983c-2.311 3.582-7.091 4.62-10.681 2.303z" fill="#ad6a50"/></g><g><path d="m318.604 336.245-2.003-9.287c-.899-4.172 1.753-8.282 5.924-9.182 4.174-.895 8.282 1.754 9.182 5.924l2.003 9.287c.899 4.172-1.753 8.282-5.924 9.182-4.176.899-8.283-1.756-9.182-5.924z" fill="#ad6a50"/></g><g><path d="m328.97 282.331-7.983-5.151c-3.585-2.313-4.617-7.096-2.303-10.681 2.313-3.586 7.095-4.617 10.681-2.303l7.983 5.151c3.586 2.313 4.617 7.096 2.303 10.681-2.311 3.582-7.091 4.62-10.681 2.303z" fill="#ad6a50"/></g><g><path d="m311.698 139.693c-.899-4.172 1.753-8.282 5.924-9.182l9.287-2.003c4.174-.898 8.282 1.754 9.182 5.924.899 4.172-1.753 8.282-5.924 9.182l-9.287 2.003c-4.176.9-8.284-1.756-9.182-5.924z" fill="#ad6a50"/></g><circle cx="338.974" cy="94.522" fill="#ff7f87" r="15.808"/><path d="m342.926 105.7c-6.174-6.173-6.174-16.183 0-22.356 1.096-1.096 2.318-1.988 3.613-2.695-5.999-3.274-13.666-2.382-18.743 2.695-6.174 6.174-6.174 16.183 0 22.356 5.077 5.077 12.744 5.969 18.743 2.695-1.295-.707-2.517-1.599-3.613-2.695z" fill="#ff636e"/><circle cx="207.429" cy="188.313" fill="#ff7f87" r="15.808"/><path d="m211.381 199.491c-6.174-6.173-6.174-16.183 0-22.356 1.096-1.096 2.318-1.988 3.613-2.695-5.999-3.274-13.666-2.382-18.743 2.695-6.174 6.174-6.174 16.183 0 22.356 5.077 5.077 12.744 5.969 18.743 2.695-1.295-.707-2.517-1.599-3.613-2.695z" fill="#ff636e"/><circle cx="142.877" cy="257.969" fill="#ff7f87" r="15.808"/><path d="m146.829 269.147c-6.174-6.173-6.174-16.183 0-22.356 1.096-1.096 2.318-1.988 3.613-2.695-5.999-3.274-13.666-2.382-18.743 2.695-6.174 6.174-6.174 16.183 0 22.356 5.077 5.077 12.744 5.969 18.743 2.695-1.295-.707-2.516-1.599-3.613-2.695z" fill="#ff636e"/><circle cx="145.252" cy="346.293" fill="#ff7f87" r="15.808"/><path d="m149.204 357.471c-6.174-6.173-6.174-16.183 0-22.356 1.096-1.096 2.318-1.988 3.613-2.695-5.999-3.274-13.666-2.382-18.743 2.695-6.174 6.174-6.174 16.183 0 22.356 5.077 5.077 12.744 5.969 18.743 2.695-1.295-.707-2.517-1.599-3.613-2.695z" fill="#ff636e"/><circle cx="210.945" cy="410.794" fill="#ff7f87" r="15.808"/><path d="m214.898 421.972c-6.174-6.173-6.174-16.183 0-22.356 1.096-1.096 2.318-1.988 3.613-2.695-5.999-3.274-13.666-2.382-18.743 2.695-6.174 6.174-6.174 16.183 0 22.356 5.077 5.077 12.744 5.969 18.743 2.695-1.296-.706-2.517-1.598-3.613-2.695z" fill="#ff636e"/><circle cx="302.412" cy="410.48" fill="#ff7f87" r="15.808"/><path d="m306.365 421.658c-6.173-6.173-6.173-16.183 0-22.356 1.096-1.096 2.318-1.988 3.613-2.695-5.999-3.274-13.666-2.382-18.743 2.695-6.174 6.174-6.174 16.183 0 22.356 5.077 5.077 12.744 5.969 18.743 2.695-1.296-.706-2.517-1.598-3.613-2.695z" fill="#ff636e"/><circle cx="367.697" cy="345.052" fill="#ff7f87" r="15.808"/><path d="m371.649 356.23c-6.174-6.173-6.174-16.183 0-22.356 1.096-1.096 2.318-1.988 3.613-2.695-5.999-3.274-13.666-2.382-18.743 2.695-6.174 6.174-6.174 16.183 0 22.356 5.077 5.077 12.744 5.969 18.743 2.695-1.295-.706-2.516-1.598-3.613-2.695z" fill="#ff636e"/><circle cx="369.912" cy="253.846" fill="#ff7f87" r="15.808"/><path d="m373.864 265.024c-6.174-6.173-6.174-16.183 0-22.356 1.096-1.096 2.318-1.988 3.613-2.695-5.999-3.274-13.666-2.382-18.743 2.695-6.174 6.174-6.174 16.183 0 22.356 5.077 5.077 12.744 5.969 18.743 2.695-1.295-.707-2.516-1.599-3.613-2.695z" fill="#ff636e"/></g></svg>